<?xml version="1.0" encoding="utf-8"?>
<!-- Generator: Adobe Illustrator 28.0.0, SVG Export Plug-In . SVG Version: 6.00 Build 0)  -->
<svg version="1.1" id="Layer_1" xmlns="http://www.w3.org/2000/svg" xmlns:xlink="http://www.w3.org/1999/xlink" x="0px" y="0px"
	 viewBox="0 0 564.4 189.6" style="enable-background:new 0 0 564.4 189.6;" xml:space="preserve">
<style type="text/css">
	.st0{enable-background:new    ;}
	.st1{fill:#FFFFFF;}
	.st2{fill:none;stroke:#FFFFFF;stroke-width:0.5;stroke-miterlimit:10;}
	.st3{clip-path:url(#SVGID_00000070830421494830542070000013629503272997025205_);}
	.st4{fill:#CBDB2A;stroke:#FFFFFF;stroke-miterlimit:10;}
	.st5{fill:none;stroke:#FFFFFF;stroke-miterlimit:10;}
	.st6{fill:#6DC8BF;stroke:#FFFFFF;stroke-width:0.5;stroke-miterlimit:10;}
</style>
<g class="st0">
	<path class="st1" d="M10.9,149.6l8,20.4h-2.1l-2.5-6.3H5L2.6,170H0.5l8.2-20.4H10.9z M13.6,162l-3.9-10.5L5.6,162H13.6z"/>
	<path class="st1" d="M42.8,153.7c-0.4-0.6-0.9-1.1-1.4-1.6c-0.6-0.4-1.2-0.7-1.9-1c-0.7-0.2-1.4-0.3-2.1-0.3
		c-1.4,0-2.5,0.3-3.5,0.8c-1,0.5-1.8,1.2-2.4,2c-0.6,0.8-1.1,1.8-1.4,2.9c-0.3,1.1-0.4,2.2-0.4,3.3c0,1.1,0.1,2.2,0.4,3.3
		c0.3,1.1,0.8,2,1.4,2.9s1.4,1.5,2.4,2c1,0.5,2.1,0.8,3.5,0.8c1,0,1.8-0.2,2.6-0.5s1.4-0.8,2-1.4c0.6-0.6,1-1.3,1.3-2.1
		c0.3-0.8,0.6-1.6,0.7-2.6h1.9c-0.1,1.3-0.4,2.4-0.9,3.4c-0.5,1-1,1.9-1.8,2.6c-0.7,0.7-1.6,1.2-2.6,1.6s-2.1,0.6-3.3,0.6
		c-1.6,0-3-0.3-4.2-0.9s-2.2-1.4-3-2.3s-1.4-2.1-1.8-3.4c-0.4-1.3-0.6-2.6-0.6-4s0.2-2.8,0.6-4c0.4-1.3,1-2.4,1.8-3.4s1.8-1.8,3-2.3
		s2.6-0.9,4.2-0.9c1,0,1.9,0.1,2.8,0.4s1.8,0.7,2.5,1.3c0.8,0.6,1.4,1.3,1.9,2.1c0.5,0.8,0.8,1.8,1,2.8h-1.9
		C43.4,155,43.1,154.3,42.8,153.7z"/>
	<path class="st1" d="M50.3,149.6V170h-1.8v-20.4H50.3z"/>
	<path class="st1" d="M64,170v-2.7H64c-0.5,1-1.2,1.7-2.1,2.3c-0.9,0.5-1.9,0.8-3,0.8c-0.9,0-1.7-0.1-2.4-0.4
		c-0.7-0.3-1.2-0.6-1.6-1.1s-0.7-1.1-0.9-1.7c-0.2-0.7-0.3-1.5-0.3-2.3v-9.6h1.8v9.6c0,1.3,0.3,2.3,0.9,3c0.6,0.7,1.6,1,3,1
		c0.8,0,1.4-0.2,2-0.5c0.6-0.3,1-0.8,1.4-1.3c0.4-0.6,0.6-1.2,0.8-1.9c0.2-0.7,0.3-1.4,0.3-2.2v-7.7h1.8V170H64z"/>
	<path class="st1" d="M77.6,158.2c-0.2-0.4-0.5-0.7-0.8-1c-0.4-0.3-0.8-0.5-1.2-0.6c-0.5-0.1-0.9-0.2-1.5-0.2c-0.4,0-0.8,0-1.2,0.1
		c-0.4,0.1-0.8,0.2-1.1,0.4c-0.3,0.2-0.6,0.5-0.8,0.8c-0.2,0.3-0.3,0.7-0.3,1.2c0,0.4,0.1,0.7,0.3,1c0.2,0.3,0.5,0.5,0.8,0.7
		s0.6,0.3,1,0.5c0.4,0.1,0.7,0.2,1,0.3L76,162c0.5,0.1,1,0.2,1.5,0.4c0.5,0.2,1,0.5,1.3,0.8c0.4,0.3,0.7,0.7,1,1.2
		c0.2,0.5,0.4,1,0.4,1.7c0,0.8-0.2,1.5-0.5,2c-0.4,0.6-0.8,1-1.4,1.4s-1.2,0.6-1.9,0.8c-0.7,0.2-1.4,0.2-2.1,0.2
		c-1.7,0-3.1-0.4-4.2-1.2c-1.1-0.8-1.7-2.1-1.8-3.9h1.8c0.1,1.2,0.5,2.1,1.3,2.8c0.8,0.6,1.8,0.9,3,0.9c0.4,0,0.9,0,1.4-0.1
		c0.5-0.1,0.9-0.3,1.3-0.5c0.4-0.2,0.7-0.5,1-0.9c0.3-0.4,0.4-0.8,0.4-1.3c0-0.4-0.1-0.8-0.3-1.1c-0.2-0.3-0.4-0.5-0.7-0.7
		s-0.7-0.4-1-0.5c-0.4-0.1-0.8-0.2-1.2-0.3l-2.3-0.5c-0.6-0.2-1.1-0.3-1.6-0.5c-0.5-0.2-0.9-0.4-1.3-0.7c-0.4-0.3-0.7-0.7-0.9-1.1
		c-0.2-0.4-0.3-1-0.3-1.6c0-0.7,0.2-1.4,0.5-1.9s0.8-1,1.3-1.3c0.5-0.3,1.1-0.6,1.8-0.7s1.3-0.2,2-0.2c0.7,0,1.4,0.1,2.1,0.3
		c0.6,0.2,1.2,0.5,1.7,0.9c0.5,0.4,0.9,0.9,1.2,1.5c0.3,0.6,0.4,1.3,0.5,2.1h-1.8C77.9,159.1,77.8,158.6,77.6,158.2z"/>
	<path class="st1" d="M88.7,155.3v1.5h-3v9.9c0,0.6,0.1,1.1,0.2,1.4c0.2,0.3,0.6,0.5,1.2,0.6c0.5,0,1,0,1.5-0.1v1.5
		c-0.3,0-0.5,0-0.8,0c-0.3,0-0.5,0-0.8,0c-1.2,0-2-0.2-2.5-0.7c-0.5-0.5-0.7-1.3-0.7-2.6v-10.1h-2.6v-1.5h2.6v-4.4h1.8v4.4H88.7z"/>
	<path class="st1" d="M92.6,165.2c0.2,0.7,0.5,1.3,0.9,1.9c0.4,0.6,0.9,1,1.5,1.4c0.6,0.4,1.3,0.5,2.2,0.5c1.3,0,2.3-0.3,3.1-1
		c0.7-0.7,1.3-1.6,1.5-2.7h1.8c-0.4,1.7-1.1,3-2.1,3.9c-1,0.9-2.5,1.4-4.3,1.4c-1.2,0-2.2-0.2-3-0.6c-0.8-0.4-1.5-1-2.1-1.7
		c-0.5-0.7-0.9-1.5-1.2-2.5c-0.3-0.9-0.4-1.9-0.4-3c0-1,0.1-1.9,0.4-2.9s0.7-1.8,1.2-2.5c0.5-0.7,1.2-1.3,2.1-1.8
		c0.8-0.4,1.9-0.7,3-0.7c1.2,0,2.2,0.2,3,0.7c0.8,0.5,1.5,1.1,2,1.9c0.5,0.8,0.9,1.7,1.1,2.7c0.2,1,0.3,2,0.3,3H92.4
		C92.4,163.8,92.4,164.5,92.6,165.2z M101.5,159.7c-0.2-0.6-0.5-1.2-0.9-1.7c-0.4-0.5-0.9-0.9-1.5-1.2c-0.6-0.3-1.2-0.4-1.9-0.4
		c-0.7,0-1.4,0.1-2,0.4c-0.6,0.3-1.1,0.7-1.5,1.2c-0.4,0.5-0.7,1-1,1.7c-0.2,0.6-0.4,1.3-0.5,2h9.5
		C101.9,161,101.8,160.3,101.5,159.7z"/>
	<path class="st1" d="M107.8,155.3v3.5h0.1c0.5-1.2,1.2-2.1,2.1-2.8c1-0.6,2.1-0.9,3.4-0.9v1.8c-0.8,0-1.6,0.1-2.2,0.3
		c-0.7,0.3-1.2,0.6-1.7,1.1c-0.5,0.5-0.9,1-1.1,1.7c-0.3,0.7-0.4,1.4-0.4,2.2v7.9h-1.8v-14.7H107.8z"/>
	<path class="st1" d="M123.6,158.2c-0.2-0.4-0.5-0.7-0.8-1c-0.4-0.3-0.8-0.5-1.2-0.6c-0.5-0.1-0.9-0.2-1.5-0.2c-0.4,0-0.8,0-1.2,0.1
		c-0.4,0.1-0.8,0.2-1.1,0.4c-0.3,0.2-0.6,0.5-0.8,0.8c-0.2,0.3-0.3,0.7-0.3,1.2c0,0.4,0.1,0.7,0.3,1c0.2,0.3,0.5,0.5,0.8,0.7
		s0.6,0.3,1,0.5c0.4,0.1,0.7,0.2,1,0.3l2.4,0.5c0.5,0.1,1,0.2,1.5,0.4c0.5,0.2,1,0.5,1.3,0.8c0.4,0.3,0.7,0.7,1,1.2
		c0.2,0.5,0.4,1,0.4,1.7c0,0.8-0.2,1.5-0.5,2c-0.4,0.6-0.8,1-1.4,1.4s-1.2,0.6-1.9,0.8c-0.7,0.2-1.4,0.2-2.1,0.2
		c-1.7,0-3.1-0.4-4.2-1.2c-1.1-0.8-1.7-2.1-1.8-3.9h1.8c0.1,1.2,0.5,2.1,1.3,2.8c0.8,0.6,1.8,0.9,3,0.9c0.4,0,0.9,0,1.4-0.1
		c0.5-0.1,0.9-0.3,1.3-0.5c0.4-0.2,0.7-0.5,1-0.9c0.3-0.4,0.4-0.8,0.4-1.3c0-0.4-0.1-0.8-0.3-1.1c-0.2-0.3-0.4-0.5-0.7-0.7
		s-0.7-0.4-1-0.5c-0.4-0.1-0.8-0.2-1.2-0.3l-2.3-0.5c-0.6-0.2-1.1-0.3-1.6-0.5c-0.5-0.2-0.9-0.4-1.3-0.7c-0.4-0.3-0.7-0.7-0.9-1.1
		c-0.2-0.4-0.3-1-0.3-1.6c0-0.7,0.2-1.4,0.5-1.9s0.8-1,1.3-1.3c0.5-0.3,1.1-0.6,1.8-0.7s1.3-0.2,2-0.2c0.7,0,1.4,0.1,2.1,0.3
		c0.6,0.2,1.2,0.5,1.7,0.9c0.5,0.4,0.9,0.9,1.2,1.5c0.3,0.6,0.4,1.3,0.5,2.1H124C123.9,159.1,123.8,158.6,123.6,158.2z"/>
	<path class="st1" d="M145.3,149.6l8,20.4h-2.1l-2.5-6.3h-9.3L137,170h-2.1l8.2-20.4H145.3z M148.1,162l-3.9-10.5l-4.1,10.5H148.1z"
		/>
	<path class="st1" d="M156.5,155.3v2.8h0.1c0.4-1,1.1-1.8,2-2.4c0.9-0.6,2-0.8,3.2-0.8c1.1,0,2.1,0.2,2.9,0.6c0.8,0.4,1.5,1,2.1,1.7
		c0.6,0.7,1,1.5,1.2,2.5c0.3,0.9,0.4,1.9,0.4,3c0,1-0.1,2-0.4,3c-0.3,0.9-0.7,1.8-1.2,2.5c-0.6,0.7-1.2,1.3-2.1,1.7
		c-0.8,0.4-1.8,0.6-2.9,0.6c-0.5,0-1.1-0.1-1.6-0.2c-0.5-0.1-1-0.3-1.5-0.6c-0.5-0.3-0.9-0.6-1.2-1c-0.4-0.4-0.6-0.9-0.8-1.4h-0.1
		v8.2h-1.8v-20.2H156.5z M166.4,160.4c-0.2-0.8-0.5-1.4-0.9-2c-0.4-0.6-0.9-1.1-1.5-1.4c-0.6-0.4-1.3-0.6-2.2-0.6
		c-1,0-1.8,0.2-2.5,0.5c-0.7,0.3-1.2,0.8-1.6,1.4c-0.4,0.6-0.7,1.2-0.8,2c-0.2,0.8-0.2,1.6-0.2,2.4c0,0.8,0.1,1.5,0.3,2.3
		c0.2,0.8,0.5,1.4,0.9,2c0.4,0.6,0.9,1.1,1.6,1.4c0.7,0.4,1.5,0.6,2.4,0.6c0.9,0,1.6-0.2,2.2-0.6c0.6-0.4,1.1-0.9,1.5-1.4
		c0.4-0.6,0.7-1.3,0.9-2c0.2-0.8,0.3-1.5,0.3-2.3C166.6,161.9,166.5,161.1,166.4,160.4z"/>
	<path class="st1" d="M172.9,155.3v2.8h0.1c0.4-1,1.1-1.8,2-2.4c0.9-0.6,2-0.8,3.2-0.8c1.1,0,2.1,0.2,2.9,0.6c0.8,0.4,1.5,1,2.1,1.7
		c0.6,0.7,1,1.5,1.2,2.5c0.3,0.9,0.4,1.9,0.4,3c0,1-0.1,2-0.4,3c-0.3,0.9-0.7,1.8-1.2,2.5c-0.6,0.7-1.2,1.3-2.1,1.7
		c-0.8,0.4-1.8,0.6-2.9,0.6c-0.5,0-1.1-0.1-1.6-0.2c-0.5-0.1-1-0.3-1.5-0.6c-0.5-0.3-0.9-0.6-1.2-1c-0.4-0.4-0.6-0.9-0.8-1.4H173
		v8.2h-1.8v-20.2H172.9z M182.8,160.4c-0.2-0.8-0.5-1.4-0.9-2c-0.4-0.6-0.9-1.1-1.5-1.4c-0.6-0.4-1.3-0.6-2.2-0.6
		c-1,0-1.8,0.2-2.5,0.5c-0.7,0.3-1.2,0.8-1.6,1.4c-0.4,0.6-0.7,1.2-0.8,2c-0.2,0.8-0.2,1.6-0.2,2.4c0,0.8,0.1,1.5,0.3,2.3
		c0.2,0.8,0.5,1.4,0.9,2c0.4,0.6,0.9,1.1,1.6,1.4c0.7,0.4,1.5,0.6,2.4,0.6c0.9,0,1.6-0.2,2.2-0.6c0.6-0.4,1.1-0.9,1.5-1.4
		c0.4-0.6,0.7-1.3,0.9-2c0.2-0.8,0.3-1.5,0.3-2.3C183,161.9,182.9,161.1,182.8,160.4z"/>
</g>
<g class="st0">
	<path class="st1" d="M189.3,155.3v3.5h0.1c0.5-1.2,1.2-2.1,2.1-2.8c1-0.6,2.1-0.9,3.4-0.9v1.8c-0.8,0-1.6,0.1-2.2,0.3
		c-0.7,0.3-1.2,0.6-1.7,1.1c-0.5,0.5-0.9,1-1.1,1.7c-0.3,0.7-0.4,1.4-0.4,2.2v7.9h-1.8v-14.7H189.3z"/>
</g>
<g class="st0">
	<path class="st1" d="M205.3,155.5c0.9,0.4,1.6,1,2.2,1.7c0.6,0.7,1,1.5,1.3,2.5c0.3,0.9,0.5,1.9,0.5,3c0,1.1-0.2,2.1-0.5,3
		c-0.3,0.9-0.8,1.8-1.3,2.5c-0.6,0.7-1.3,1.3-2.2,1.7c-0.9,0.4-1.9,0.6-3,0.6c-1.1,0-2.1-0.2-3-0.6c-0.9-0.4-1.6-1-2.2-1.7
		c-0.6-0.7-1-1.5-1.3-2.5c-0.3-0.9-0.5-1.9-0.5-3c0-1.1,0.2-2.1,0.5-3c0.3-0.9,0.8-1.8,1.3-2.5c0.6-0.7,1.3-1.3,2.2-1.7
		c0.9-0.4,1.9-0.6,3-0.6C203.5,154.9,204.5,155.1,205.3,155.5z M200.1,156.9c-0.6,0.4-1.2,0.8-1.6,1.4c-0.4,0.6-0.8,1.3-1,2
		c-0.2,0.8-0.3,1.5-0.3,2.3c0,0.8,0.1,1.5,0.3,2.3c0.2,0.8,0.5,1.4,1,2s1,1.1,1.6,1.4c0.6,0.4,1.4,0.5,2.3,0.5s1.6-0.2,2.3-0.5
		c0.6-0.4,1.2-0.8,1.6-1.4s0.8-1.3,1-2c0.2-0.8,0.3-1.5,0.3-2.3c0-0.8-0.1-1.5-0.3-2.3c-0.2-0.8-0.5-1.4-1-2c-0.4-0.6-1-1.1-1.6-1.4
		c-0.6-0.4-1.4-0.5-2.3-0.5S200.7,156.6,200.1,156.9z"/>
	<path class="st1" d="M212.4,157.6c0.3-0.6,0.7-1.1,1.2-1.5c0.5-0.4,1.1-0.7,1.8-0.9c0.7-0.2,1.5-0.3,2.3-0.3c0.6,0,1.3,0.1,1.9,0.2
		c0.6,0.1,1.2,0.4,1.7,0.7c0.5,0.3,0.9,0.8,1.3,1.4c0.3,0.6,0.5,1.4,0.5,2.4v7.8c0,0.7,0.4,1.1,1.1,1.1c0.2,0,0.4,0,0.6-0.1v1.5
		c-0.2,0-0.4,0.1-0.6,0.1c-0.2,0-0.4,0-0.6,0c-0.5,0-0.8-0.1-1.1-0.2c-0.3-0.1-0.5-0.3-0.6-0.5c-0.2-0.2-0.3-0.5-0.3-0.8
		s-0.1-0.7-0.1-1h-0.1c-0.3,0.5-0.7,0.9-1,1.3c-0.3,0.4-0.7,0.7-1.1,0.9c-0.4,0.2-0.9,0.4-1.4,0.6c-0.5,0.1-1.1,0.2-1.9,0.2
		c-0.7,0-1.3-0.1-1.9-0.2c-0.6-0.2-1.1-0.4-1.6-0.8c-0.4-0.4-0.8-0.8-1.1-1.3s-0.4-1.2-0.4-1.9c0-1,0.2-1.8,0.7-2.4
		c0.5-0.6,1.1-1,1.8-1.3c0.8-0.3,1.6-0.5,2.5-0.6c0.9-0.1,1.9-0.2,2.9-0.4c0.4,0,0.7-0.1,1-0.1c0.3-0.1,0.5-0.2,0.7-0.3
		s0.3-0.3,0.4-0.6c0.1-0.2,0.2-0.6,0.2-1c0-0.6-0.1-1.1-0.3-1.5s-0.5-0.7-0.8-0.9c-0.4-0.2-0.8-0.4-1.2-0.5c-0.5-0.1-1-0.1-1.5-0.1
		c-1.1,0-2.1,0.3-2.8,0.8s-1.1,1.4-1.1,2.6h-1.8C211.9,159,212.1,158.2,212.4,157.6z M221.4,162c-0.1,0.2-0.3,0.4-0.7,0.5
		c-0.3,0.1-0.6,0.2-0.9,0.2c-0.8,0.1-1.5,0.3-2.4,0.4c-0.8,0.1-1.5,0.3-2.2,0.5s-1.2,0.5-1.6,0.9c-0.4,0.4-0.6,0.9-0.6,1.7
		c0,0.5,0.1,0.9,0.3,1.2c0.2,0.4,0.4,0.7,0.7,0.9c0.3,0.3,0.7,0.5,1.1,0.6c0.4,0.1,0.8,0.2,1.2,0.2c0.7,0,1.3-0.1,2-0.3
		c0.6-0.2,1.2-0.5,1.6-0.9c0.5-0.4,0.8-0.9,1.1-1.5c0.3-0.6,0.4-1.2,0.4-1.9L221.4,162L221.4,162z"/>
	<path class="st1" d="M235.9,157.3c-0.7-0.6-1.6-0.9-2.8-0.9c-0.9,0-1.6,0.2-2.3,0.5c-0.6,0.4-1.2,0.8-1.6,1.4c-0.4,0.6-0.8,1.3-1,2
		c-0.2,0.8-0.3,1.5-0.3,2.3c0,0.8,0.1,1.5,0.3,2.3c0.2,0.8,0.5,1.4,1,2s1,1.1,1.6,1.4c0.6,0.4,1.4,0.5,2.3,0.5
		c0.6,0,1.1-0.1,1.6-0.3c0.5-0.2,0.9-0.5,1.3-0.9c0.4-0.4,0.7-0.8,0.9-1.3c0.2-0.5,0.4-1.1,0.5-1.7h1.8c-0.2,1.8-0.9,3.2-2,4.2
		c-1.1,1-2.4,1.5-4.1,1.5c-1.1,0-2.1-0.2-3-0.6c-0.9-0.4-1.6-1-2.2-1.7c-0.6-0.7-1-1.5-1.3-2.5c-0.3-0.9-0.5-1.9-0.5-3
		c0-1.1,0.2-2.1,0.5-3c0.3-0.9,0.8-1.8,1.3-2.5c0.6-0.7,1.3-1.3,2.2-1.7c0.9-0.4,1.9-0.6,3-0.6c1.6,0,2.9,0.4,4,1.3
		c1.1,0.8,1.7,2.1,2,3.8h-1.8C237,158.8,236.5,158,235.9,157.3z"/>
	<path class="st1" d="M243.4,149.6v8.2h0.1c0.3-0.9,1-1.6,1.8-2.2c0.9-0.5,1.8-0.8,2.9-0.8c1,0,1.9,0.1,2.6,0.4
		c0.7,0.3,1.3,0.6,1.7,1.1c0.4,0.5,0.7,1.1,0.9,1.8c0.2,0.7,0.3,1.5,0.3,2.4v9.5h-1.8v-9.2c0-0.6-0.1-1.2-0.2-1.8
		c-0.1-0.5-0.3-1-0.6-1.4c-0.3-0.4-0.7-0.7-1.2-0.9s-1.1-0.3-1.8-0.3s-1.4,0.1-1.9,0.4s-1,0.6-1.4,1.1c-0.4,0.4-0.7,1-0.9,1.6
		c-0.2,0.6-0.3,1.3-0.4,2v8.6h-1.8v-20.4H243.4z"/>
	<path class="st1" d="M270.8,155.3v1.5h-3v9.9c0,0.6,0.1,1.1,0.2,1.4c0.2,0.3,0.6,0.5,1.2,0.6c0.5,0,1,0,1.5-0.1v1.5
		c-0.3,0-0.5,0-0.8,0c-0.3,0-0.5,0-0.8,0c-1.2,0-2-0.2-2.5-0.7c-0.5-0.5-0.7-1.3-0.7-2.6v-10.1h-2.6v-1.5h2.6v-4.4h1.8v4.4H270.8z"
		/>
	<path class="st1" d="M282.6,155.5c0.9,0.4,1.6,1,2.2,1.7c0.6,0.7,1,1.5,1.3,2.5c0.3,0.9,0.5,1.9,0.5,3c0,1.1-0.2,2.1-0.5,3
		c-0.3,0.9-0.8,1.8-1.3,2.5c-0.6,0.7-1.3,1.3-2.2,1.7c-0.9,0.4-1.9,0.6-3,0.6c-1.1,0-2.1-0.2-3-0.6c-0.9-0.4-1.6-1-2.2-1.7
		c-0.6-0.7-1-1.5-1.3-2.5c-0.3-0.9-0.5-1.9-0.5-3c0-1.1,0.2-2.1,0.5-3c0.3-0.9,0.8-1.8,1.3-2.5c0.6-0.7,1.3-1.3,2.2-1.7
		c0.9-0.4,1.9-0.6,3-0.6C280.8,154.9,281.8,155.1,282.6,155.5z M277.4,156.9c-0.6,0.4-1.2,0.8-1.6,1.4c-0.4,0.6-0.8,1.3-1,2
		c-0.2,0.8-0.3,1.5-0.3,2.3c0,0.8,0.1,1.5,0.3,2.3c0.2,0.8,0.5,1.4,1,2s1,1.1,1.6,1.4c0.6,0.4,1.4,0.5,2.3,0.5s1.6-0.2,2.3-0.5
		c0.6-0.4,1.2-0.8,1.6-1.4s0.8-1.3,1-2c0.2-0.8,0.3-1.5,0.3-2.3c0-0.8-0.1-1.5-0.3-2.3c-0.2-0.8-0.5-1.4-1-2c-0.4-0.6-1-1.1-1.6-1.4
		c-0.6-0.4-1.4-0.5-2.3-0.5S278,156.6,277.4,156.9z"/>
	<path class="st1" d="M299,166c0.3,0.7,0.8,1.3,1.4,1.7c0.6,0.4,1.3,0.7,2.1,0.9c0.8,0.2,1.7,0.3,2.6,0.3c0.5,0,1.1-0.1,1.7-0.2
		c0.6-0.2,1.2-0.4,1.8-0.7c0.5-0.3,1-0.8,1.4-1.3c0.4-0.5,0.5-1.2,0.5-1.9c0-0.6-0.1-1.1-0.4-1.5c-0.3-0.4-0.6-0.8-1-1.1
		c-0.4-0.3-0.9-0.5-1.4-0.7c-0.5-0.2-1-0.3-1.5-0.4l-4.5-1.1c-0.6-0.2-1.2-0.3-1.7-0.6c-0.6-0.2-1.1-0.5-1.5-0.9
		c-0.4-0.4-0.8-0.8-1-1.4c-0.3-0.6-0.4-1.2-0.4-2c0-0.5,0.1-1.1,0.3-1.7c0.2-0.7,0.5-1.3,1.1-1.9c0.5-0.6,1.2-1.1,2.2-1.5
		c0.9-0.4,2.1-0.6,3.5-0.6c1,0,2,0.1,2.9,0.4c0.9,0.3,1.7,0.7,2.4,1.2s1.2,1.2,1.6,2c0.4,0.8,0.6,1.7,0.6,2.8h-1.9
		c0-0.8-0.2-1.5-0.5-2c-0.3-0.6-0.7-1.1-1.2-1.5s-1.1-0.7-1.7-0.9s-1.3-0.3-2.1-0.3c-0.7,0-1.3,0.1-1.9,0.2
		c-0.6,0.1-1.2,0.4-1.6,0.7c-0.5,0.3-0.8,0.7-1.1,1.2c-0.3,0.5-0.4,1.2-0.4,1.9c0,0.5,0.1,0.9,0.2,1.2c0.2,0.4,0.4,0.7,0.7,0.9
		c0.3,0.2,0.6,0.4,1,0.6c0.4,0.2,0.8,0.3,1.2,0.4l5,1.2c0.7,0.2,1.4,0.4,2,0.7c0.6,0.3,1.2,0.6,1.7,1c0.5,0.4,0.9,0.9,1.1,1.5
		s0.4,1.3,0.4,2.1c0,0.2,0,0.5-0.1,0.9c0,0.4-0.2,0.8-0.3,1.2c-0.2,0.4-0.4,0.9-0.8,1.3s-0.8,0.8-1.4,1.2s-1.3,0.6-2.2,0.9
		s-1.9,0.3-3.1,0.3s-2.3-0.1-3.3-0.4c-1-0.3-1.9-0.7-2.6-1.3c-0.7-0.6-1.3-1.3-1.7-2.2s-0.6-2-0.5-3.2h1.9
		C298.5,164.4,298.7,165.2,299,166z"/>
	<path class="st1" d="M321.1,155.3v1.5h-3v9.9c0,0.6,0.1,1.1,0.2,1.4c0.2,0.3,0.6,0.5,1.2,0.6c0.5,0,1,0,1.5-0.1v1.5
		c-0.3,0-0.5,0-0.8,0c-0.3,0-0.5,0-0.8,0c-1.2,0-2-0.2-2.5-0.7c-0.5-0.5-0.7-1.3-0.7-2.6v-10.1h-2.6v-1.5h2.6v-4.4h1.8v4.4H321.1z"
		/>
	<path class="st1" d="M324.1,157.6c0.3-0.6,0.7-1.1,1.2-1.5c0.5-0.4,1.1-0.7,1.8-0.9c0.7-0.2,1.5-0.3,2.3-0.3c0.6,0,1.3,0.1,1.9,0.2
		c0.6,0.1,1.2,0.4,1.7,0.7s0.9,0.8,1.3,1.4c0.3,0.6,0.5,1.4,0.5,2.4v7.8c0,0.7,0.4,1.1,1.1,1.1c0.2,0,0.4,0,0.6-0.1v1.5
		c-0.2,0-0.4,0.1-0.6,0.1c-0.2,0-0.4,0-0.6,0c-0.5,0-0.8-0.1-1.1-0.2c-0.3-0.1-0.5-0.3-0.6-0.5s-0.3-0.5-0.3-0.8
		c0-0.3-0.1-0.7-0.1-1h-0.1c-0.3,0.5-0.7,0.9-1,1.3c-0.3,0.4-0.7,0.7-1.1,0.9c-0.4,0.2-0.9,0.4-1.4,0.6c-0.5,0.1-1.1,0.2-1.9,0.2
		c-0.7,0-1.3-0.1-1.9-0.2c-0.6-0.2-1.1-0.4-1.6-0.8s-0.8-0.8-1.1-1.3c-0.3-0.5-0.4-1.2-0.4-1.9c0-1,0.2-1.8,0.7-2.4
		c0.5-0.6,1.1-1,1.8-1.3s1.6-0.5,2.5-0.6c0.9-0.1,1.9-0.2,2.9-0.4c0.4,0,0.7-0.1,1-0.1c0.3-0.1,0.5-0.2,0.7-0.3s0.3-0.3,0.4-0.6
		c0.1-0.2,0.2-0.6,0.2-1c0-0.6-0.1-1.1-0.3-1.5s-0.5-0.7-0.8-0.9c-0.4-0.2-0.8-0.4-1.2-0.5c-0.5-0.1-1-0.1-1.5-0.1
		c-1.1,0-2.1,0.3-2.8,0.8c-0.7,0.5-1.1,1.4-1.1,2.6h-1.8C323.6,159,323.8,158.2,324.1,157.6z M333.1,162c-0.1,0.2-0.3,0.4-0.7,0.5
		c-0.3,0.1-0.6,0.2-0.9,0.2c-0.8,0.1-1.5,0.3-2.4,0.4s-1.5,0.3-2.2,0.5s-1.2,0.5-1.6,0.9c-0.4,0.4-0.6,0.9-0.6,1.7
		c0,0.5,0.1,0.9,0.3,1.2c0.2,0.4,0.4,0.7,0.7,0.9s0.7,0.5,1.1,0.6c0.4,0.1,0.8,0.2,1.2,0.2c0.7,0,1.3-0.1,2-0.3
		c0.6-0.2,1.2-0.5,1.6-0.9c0.5-0.4,0.8-0.9,1.1-1.5s0.4-1.2,0.4-1.9L333.1,162L333.1,162z"/>
	<path class="st1" d="M344.4,155.3v1.5h-3v9.9c0,0.6,0.1,1.1,0.2,1.4s0.6,0.5,1.2,0.6c0.5,0,1,0,1.5-0.1v1.5c-0.3,0-0.5,0-0.8,0
		c-0.3,0-0.5,0-0.8,0c-1.2,0-2-0.2-2.5-0.7c-0.5-0.5-0.7-1.3-0.7-2.6v-10.1H337v-1.5h2.6v-4.4h1.8v4.4H344.4z"/>
	<path class="st1" d="M348.8,149.6v2.9H347v-2.9H348.8z M348.8,155.3V170H347v-14.7H348.8z"/>
	<path class="st1" d="M360.8,158.2c-0.2-0.4-0.5-0.7-0.8-1c-0.4-0.3-0.8-0.5-1.2-0.6s-0.9-0.2-1.5-0.2c-0.4,0-0.8,0-1.2,0.1
		c-0.4,0.1-0.8,0.2-1.1,0.4c-0.3,0.2-0.6,0.5-0.8,0.8c-0.2,0.3-0.3,0.7-0.3,1.2c0,0.4,0.1,0.7,0.3,1c0.2,0.3,0.5,0.5,0.8,0.7
		s0.6,0.3,1,0.5c0.4,0.1,0.7,0.2,1,0.3l2.4,0.5c0.5,0.1,1,0.2,1.5,0.4c0.5,0.2,1,0.5,1.3,0.8s0.7,0.7,1,1.2c0.2,0.5,0.4,1,0.4,1.7
		c0,0.8-0.2,1.5-0.5,2c-0.4,0.6-0.8,1-1.4,1.4c-0.6,0.4-1.2,0.6-1.9,0.8c-0.7,0.2-1.4,0.2-2.1,0.2c-1.7,0-3.1-0.4-4.2-1.2
		c-1.1-0.8-1.7-2.1-1.8-3.9h1.8c0.1,1.2,0.5,2.1,1.3,2.8s1.8,0.9,3,0.9c0.4,0,0.9,0,1.4-0.1c0.5-0.1,0.9-0.3,1.3-0.5
		c0.4-0.2,0.7-0.5,1-0.9c0.3-0.4,0.4-0.8,0.4-1.3c0-0.4-0.1-0.8-0.3-1.1c-0.2-0.3-0.4-0.5-0.7-0.7s-0.7-0.4-1-0.5
		c-0.4-0.1-0.8-0.2-1.2-0.3l-2.3-0.5c-0.6-0.2-1.1-0.3-1.6-0.5c-0.5-0.2-0.9-0.4-1.3-0.7c-0.4-0.3-0.7-0.7-0.9-1.1s-0.3-1-0.3-1.6
		c0-0.7,0.2-1.4,0.5-1.9c0.3-0.5,0.8-1,1.3-1.3s1.1-0.6,1.8-0.7s1.3-0.2,2-0.2c0.7,0,1.4,0.1,2.1,0.3c0.6,0.2,1.2,0.5,1.7,0.9
		c0.5,0.4,0.9,0.9,1.2,1.5c0.3,0.6,0.4,1.3,0.5,2.1h-1.8C361.1,159.1,361,158.6,360.8,158.2z"/>
	<path class="st1" d="M371.9,155.3v1.5h-3v9.9c0,0.6,0.1,1.1,0.2,1.4s0.6,0.5,1.2,0.6c0.5,0,1,0,1.5-0.1v1.5c-0.3,0-0.5,0-0.8,0
		c-0.3,0-0.5,0-0.8,0c-1.2,0-2-0.2-2.5-0.7c-0.5-0.5-0.7-1.3-0.7-2.6v-10.1h-2.6v-1.5h2.6v-4.4h1.8v4.4H371.9z"/>
	<path class="st1" d="M376.3,149.6v2.9h-1.8v-2.9H376.3z M376.3,155.3V170h-1.8v-14.7H376.3z"/>
	<path class="st1" d="M388.8,157.3c-0.7-0.6-1.6-0.9-2.8-0.9c-0.9,0-1.6,0.2-2.3,0.5c-0.6,0.4-1.2,0.8-1.6,1.4c-0.4,0.6-0.8,1.3-1,2
		c-0.2,0.8-0.3,1.5-0.3,2.3c0,0.8,0.1,1.5,0.3,2.3c0.2,0.8,0.5,1.4,1,2s1,1.1,1.6,1.4s1.4,0.5,2.3,0.5c0.6,0,1.1-0.1,1.6-0.3
		c0.5-0.2,0.9-0.5,1.3-0.9c0.4-0.4,0.7-0.8,0.9-1.3c0.2-0.5,0.4-1.1,0.5-1.7h1.8c-0.2,1.8-0.9,3.2-2,4.2c-1.1,1-2.4,1.5-4.1,1.5
		c-1.1,0-2.1-0.2-3-0.6c-0.9-0.4-1.6-1-2.2-1.7c-0.6-0.7-1-1.5-1.3-2.5c-0.3-0.9-0.5-1.9-0.5-3c0-1.1,0.2-2.1,0.5-3
		c0.3-0.9,0.8-1.8,1.3-2.5c0.6-0.7,1.3-1.3,2.2-1.7c0.9-0.4,1.9-0.6,3-0.6c1.6,0,2.9,0.4,4,1.3c1.1,0.8,1.7,2.1,2,3.8h-1.8
		C390,158.8,389.5,158,388.8,157.3z"/>
	<path class="st1" d="M395,157.6c0.3-0.6,0.7-1.1,1.2-1.5c0.5-0.4,1.1-0.7,1.8-0.9c0.7-0.2,1.5-0.3,2.3-0.3c0.6,0,1.3,0.1,1.9,0.2
		c0.6,0.1,1.2,0.4,1.7,0.7s0.9,0.8,1.3,1.4c0.3,0.6,0.5,1.4,0.5,2.4v7.8c0,0.7,0.4,1.1,1.1,1.1c0.2,0,0.4,0,0.6-0.1v1.5
		c-0.2,0-0.4,0.1-0.6,0.1c-0.2,0-0.4,0-0.6,0c-0.5,0-0.8-0.1-1.1-0.2c-0.3-0.1-0.5-0.3-0.6-0.5s-0.3-0.5-0.3-0.8
		c0-0.3-0.1-0.7-0.1-1h-0.1c-0.3,0.5-0.7,0.9-1,1.3c-0.3,0.4-0.7,0.7-1.1,0.9c-0.4,0.2-0.9,0.4-1.4,0.6c-0.5,0.1-1.1,0.2-1.9,0.2
		c-0.7,0-1.3-0.1-1.9-0.2c-0.6-0.2-1.1-0.4-1.6-0.8s-0.8-0.8-1.1-1.3c-0.3-0.5-0.4-1.2-0.4-1.9c0-1,0.2-1.8,0.7-2.4
		c0.5-0.6,1.1-1,1.8-1.3s1.6-0.5,2.5-0.6c0.9-0.1,1.9-0.2,2.9-0.4c0.4,0,0.7-0.1,1-0.1c0.3-0.1,0.5-0.2,0.7-0.3s0.3-0.3,0.4-0.6
		c0.1-0.2,0.2-0.6,0.2-1c0-0.6-0.1-1.1-0.3-1.5s-0.5-0.7-0.8-0.9c-0.4-0.2-0.8-0.4-1.2-0.5c-0.5-0.1-1-0.1-1.5-0.1
		c-1.1,0-2.1,0.3-2.8,0.8c-0.7,0.5-1.1,1.4-1.1,2.6h-1.8C394.5,159,394.7,158.2,395,157.6z M404,162c-0.1,0.2-0.3,0.4-0.7,0.5
		c-0.3,0.1-0.6,0.2-0.9,0.2c-0.8,0.1-1.5,0.3-2.4,0.4s-1.5,0.3-2.2,0.5s-1.2,0.5-1.6,0.9c-0.4,0.4-0.6,0.9-0.6,1.7
		c0,0.5,0.1,0.9,0.3,1.2c0.2,0.4,0.4,0.7,0.7,0.9s0.7,0.5,1.1,0.6c0.4,0.1,0.8,0.2,1.2,0.2c0.7,0,1.3-0.1,2-0.3
		c0.6-0.2,1.2-0.5,1.6-0.9c0.5-0.4,0.8-0.9,1.1-1.5s0.4-1.2,0.4-1.9L404,162L404,162z"/>
	<path class="st1" d="M411.3,149.6V170h-1.8v-20.4H411.3z"/>
	<path class="st1" d="M425.8,149.6l6.8,17.9l7-17.9h2.9V170h-1.9v-17.6h-0.1l-7,17.6h-1.8l-6.7-17.6h-0.1V170H423v-20.4H425.8z"/>
	<path class="st1" d="M447.5,165.2c0.2,0.7,0.5,1.3,0.9,1.9c0.4,0.6,0.9,1,1.5,1.4c0.6,0.4,1.3,0.5,2.2,0.5c1.3,0,2.3-0.3,3.1-1
		c0.7-0.7,1.3-1.6,1.5-2.7h1.8c-0.4,1.7-1.1,3-2.1,3.9c-1,0.9-2.5,1.4-4.3,1.4c-1.2,0-2.2-0.2-3-0.6c-0.8-0.4-1.5-1-2.1-1.7
		c-0.5-0.7-0.9-1.5-1.2-2.5c-0.3-0.9-0.4-1.9-0.4-3c0-1,0.1-1.9,0.4-2.9c0.3-0.9,0.7-1.8,1.2-2.5c0.5-0.7,1.2-1.3,2.1-1.8
		c0.8-0.4,1.9-0.7,3-0.7c1.2,0,2.2,0.2,3,0.7c0.8,0.5,1.5,1.1,2,1.9c0.5,0.8,0.9,1.7,1.1,2.7s0.3,2,0.3,3h-11.3
		C447.2,163.8,447.3,164.5,447.5,165.2z M456.4,159.7c-0.2-0.6-0.5-1.2-0.9-1.7c-0.4-0.5-0.9-0.9-1.5-1.2c-0.6-0.3-1.2-0.4-1.9-0.4
		c-0.7,0-1.4,0.1-2,0.4c-0.6,0.3-1.1,0.7-1.5,1.2c-0.4,0.5-0.7,1-1,1.7c-0.2,0.6-0.4,1.3-0.5,2h9.5
		C456.7,161,456.6,160.3,456.4,159.7z"/>
	<path class="st1" d="M470,157.3c-0.7-0.6-1.6-0.9-2.8-0.9c-0.9,0-1.6,0.2-2.3,0.5c-0.6,0.4-1.2,0.8-1.6,1.4c-0.4,0.6-0.8,1.3-1,2
		c-0.2,0.8-0.3,1.5-0.3,2.3c0,0.8,0.1,1.5,0.3,2.3c0.2,0.8,0.5,1.4,1,2s1,1.1,1.6,1.4s1.4,0.5,2.3,0.5c0.6,0,1.1-0.1,1.6-0.3
		c0.5-0.2,0.9-0.5,1.3-0.9c0.4-0.4,0.7-0.8,0.9-1.3c0.2-0.5,0.4-1.1,0.5-1.7h1.8c-0.2,1.8-0.9,3.2-2,4.2c-1.1,1-2.4,1.5-4.1,1.5
		c-1.1,0-2.1-0.2-3-0.6c-0.9-0.4-1.6-1-2.2-1.7c-0.6-0.7-1-1.5-1.3-2.5c-0.3-0.9-0.5-1.9-0.5-3c0-1.1,0.2-2.1,0.5-3
		c0.3-0.9,0.8-1.8,1.3-2.5c0.6-0.7,1.3-1.3,2.2-1.7c0.9-0.4,1.9-0.6,3-0.6c1.6,0,2.9,0.4,4,1.3c1.1,0.8,1.7,2.1,2,3.8h-1.8
		C471.1,158.8,470.7,158,470,157.3z"/>
	<path class="st1" d="M477.6,149.6v8.2h0.1c0.3-0.9,1-1.6,1.8-2.2s1.8-0.8,2.9-0.8c1,0,1.9,0.1,2.6,0.4c0.7,0.3,1.3,0.6,1.7,1.1
		c0.4,0.5,0.7,1.1,0.9,1.8s0.3,1.5,0.3,2.4v9.5H486v-9.2c0-0.6-0.1-1.2-0.2-1.8c-0.1-0.5-0.3-1-0.6-1.4c-0.3-0.4-0.7-0.7-1.2-0.9
		c-0.5-0.2-1.1-0.3-1.8-0.3c-0.7,0-1.4,0.1-1.9,0.4c-0.6,0.3-1,0.6-1.4,1.1s-0.7,1-0.9,1.6c-0.2,0.6-0.3,1.3-0.4,2v8.6h-1.8v-20.4
		H477.6z"/>
	<path class="st1" d="M491.5,157.6c0.3-0.6,0.7-1.1,1.2-1.5c0.5-0.4,1.1-0.7,1.8-0.9c0.7-0.2,1.5-0.3,2.3-0.3c0.6,0,1.3,0.1,1.9,0.2
		c0.6,0.1,1.2,0.4,1.7,0.7s0.9,0.8,1.3,1.4c0.3,0.6,0.5,1.4,0.5,2.4v7.8c0,0.7,0.4,1.1,1.1,1.1c0.2,0,0.4,0,0.6-0.1v1.5
		c-0.2,0-0.4,0.1-0.6,0.1c-0.2,0-0.4,0-0.6,0c-0.5,0-0.8-0.1-1.1-0.2c-0.3-0.1-0.5-0.3-0.6-0.5s-0.3-0.5-0.3-0.8
		c0-0.3-0.1-0.7-0.1-1h-0.1c-0.3,0.5-0.7,0.9-1,1.3c-0.3,0.4-0.7,0.7-1.1,0.9c-0.4,0.2-0.9,0.4-1.4,0.6c-0.5,0.1-1.1,0.2-1.9,0.2
		c-0.7,0-1.3-0.1-1.9-0.2c-0.6-0.2-1.1-0.4-1.6-0.8s-0.8-0.8-1.1-1.3c-0.3-0.5-0.4-1.2-0.4-1.9c0-1,0.2-1.8,0.7-2.4
		c0.5-0.6,1.1-1,1.8-1.3s1.6-0.5,2.5-0.6c0.9-0.1,1.9-0.2,2.9-0.4c0.4,0,0.7-0.1,1-0.1c0.3-0.1,0.5-0.2,0.7-0.3s0.3-0.3,0.4-0.6
		c0.1-0.2,0.2-0.6,0.2-1c0-0.6-0.1-1.1-0.3-1.5s-0.5-0.7-0.8-0.9c-0.4-0.2-0.8-0.4-1.2-0.5c-0.5-0.1-1-0.1-1.5-0.1
		c-1.1,0-2.1,0.3-2.8,0.8c-0.7,0.5-1.1,1.4-1.1,2.6H491C491.1,159,491.2,158.2,491.5,157.6z M500.5,162c-0.1,0.2-0.3,0.4-0.7,0.5
		c-0.3,0.1-0.6,0.2-0.9,0.2c-0.8,0.1-1.5,0.3-2.4,0.4s-1.5,0.3-2.2,0.5s-1.2,0.5-1.6,0.9c-0.4,0.4-0.6,0.9-0.6,1.7
		c0,0.5,0.1,0.9,0.3,1.2c0.2,0.4,0.4,0.7,0.7,0.9s0.7,0.5,1.1,0.6c0.4,0.1,0.8,0.2,1.2,0.2c0.7,0,1.3-0.1,2-0.3
		c0.6-0.2,1.2-0.5,1.6-0.9c0.5-0.4,0.8-0.9,1.1-1.5s0.4-1.2,0.4-1.9L500.5,162L500.5,162z"/>
	<path class="st1" d="M507.8,155.3v2.5h0.1c0.3-0.9,1-1.6,1.8-2.2s1.8-0.8,2.9-0.8c1,0,1.9,0.1,2.6,0.4c0.7,0.3,1.3,0.6,1.7,1.1
		c0.4,0.5,0.7,1.1,0.9,1.8s0.3,1.5,0.3,2.4v9.5h-1.8v-9.2c0-0.6-0.1-1.2-0.2-1.8c-0.1-0.5-0.3-1-0.6-1.4c-0.3-0.4-0.7-0.7-1.2-0.9
		c-0.5-0.2-1.1-0.3-1.8-0.3c-0.7,0-1.4,0.1-1.9,0.4c-0.6,0.3-1,0.6-1.4,1.1s-0.7,1-0.9,1.6c-0.2,0.6-0.3,1.3-0.4,2v8.6H506v-14.7
		H507.8z"/>
	<path class="st1" d="M523.2,149.6v2.9h-1.8v-2.9H523.2z M523.2,155.3V170h-1.8v-14.7H523.2z"/>
	<path class="st1" d="M535.7,157.3c-0.7-0.6-1.6-0.9-2.8-0.9c-0.9,0-1.6,0.2-2.3,0.5c-0.6,0.4-1.2,0.8-1.6,1.4c-0.4,0.6-0.8,1.3-1,2
		c-0.2,0.8-0.3,1.5-0.3,2.3c0,0.8,0.1,1.5,0.3,2.3c0.2,0.8,0.5,1.4,1,2s1,1.1,1.6,1.4c0.6,0.4,1.4,0.5,2.3,0.5
		c0.6,0,1.1-0.1,1.6-0.3c0.5-0.2,0.9-0.5,1.3-0.9c0.4-0.4,0.7-0.8,0.9-1.3c0.2-0.5,0.4-1.1,0.5-1.7h1.8c-0.2,1.8-0.9,3.2-2,4.2
		c-1.1,1-2.4,1.5-4.1,1.5c-1.1,0-2.1-0.2-3-0.6c-0.9-0.4-1.6-1-2.2-1.7c-0.6-0.7-1-1.5-1.3-2.5s-0.5-1.9-0.5-3c0-1.1,0.2-2.1,0.5-3
		s0.8-1.8,1.3-2.5c0.6-0.7,1.3-1.3,2.2-1.7s1.9-0.6,3-0.6c1.6,0,2.9,0.4,4,1.3c1.1,0.8,1.7,2.1,2,3.8H537
		C536.8,158.8,536.3,158,535.7,157.3z"/>
	<path class="st1" d="M550,158.2c-0.2-0.4-0.5-0.7-0.8-1c-0.4-0.3-0.8-0.5-1.2-0.6c-0.5-0.1-0.9-0.2-1.5-0.2c-0.4,0-0.8,0-1.2,0.1
		c-0.4,0.1-0.8,0.2-1.1,0.4c-0.3,0.2-0.6,0.5-0.8,0.8c-0.2,0.3-0.3,0.7-0.3,1.2c0,0.4,0.1,0.7,0.3,1c0.2,0.3,0.5,0.5,0.8,0.7
		s0.6,0.3,1,0.5c0.4,0.1,0.7,0.2,1,0.3l2.4,0.5c0.5,0.1,1,0.2,1.5,0.4s1,0.5,1.3,0.8c0.4,0.3,0.7,0.7,1,1.2c0.2,0.5,0.4,1,0.4,1.7
		c0,0.8-0.2,1.5-0.5,2c-0.4,0.6-0.8,1-1.4,1.4c-0.6,0.4-1.2,0.6-1.9,0.8c-0.7,0.2-1.4,0.2-2.1,0.2c-1.7,0-3.1-0.4-4.2-1.2
		c-1.1-0.8-1.7-2.1-1.8-3.9h1.8c0.1,1.2,0.5,2.1,1.3,2.8c0.8,0.6,1.8,0.9,3,0.9c0.4,0,0.9,0,1.4-0.1c0.5-0.1,0.9-0.3,1.3-0.5
		s0.7-0.5,1-0.9c0.3-0.4,0.4-0.8,0.4-1.3c0-0.4-0.1-0.8-0.3-1.1c-0.2-0.3-0.4-0.5-0.7-0.7s-0.7-0.4-1-0.5c-0.4-0.1-0.8-0.2-1.2-0.3
		l-2.3-0.5c-0.6-0.2-1.1-0.3-1.6-0.5c-0.5-0.2-0.9-0.4-1.3-0.7c-0.4-0.3-0.7-0.7-0.9-1.1c-0.2-0.4-0.3-1-0.3-1.6
		c0-0.7,0.2-1.4,0.5-1.9c0.3-0.5,0.8-1,1.3-1.3c0.5-0.3,1.1-0.6,1.8-0.7s1.3-0.2,2-0.2c0.7,0,1.4,0.1,2.1,0.3
		c0.6,0.2,1.2,0.5,1.7,0.9c0.5,0.4,0.9,0.9,1.2,1.5s0.4,1.3,0.5,2.1h-1.8C550.3,159.1,550.2,158.6,550,158.2z"/>
</g>
<g class="st0">
	<path class="st1" d="M214.5,54.3c-2.2-9.6-6.2-16.4-12.2-20.5c-5.9-4.1-13.7-6.1-23.3-6.1c-6.8,0-12.6,1.4-17.5,4.1
		c-4.9,2.7-8.9,6.4-12.1,10.9c-3.2,4.6-5.5,9.9-7,15.9c-1.5,6-2.3,12.3-2.3,19c0,6.2,0.6,12.4,2,18.4c1.3,6,3.5,11.4,6.5,16.2
		c3,4.7,7.1,8.6,12.2,11.5c5.1,2.9,11.5,4.4,19.2,4.4c4.8,0,9.2-0.8,13.1-2.3c4-1.6,7.4-3.7,10.4-6.5c3-2.8,5.5-6,7.5-9.8
		c2-3.7,3.6-7.9,4.6-12.3h11.1c-1.2,5.4-3.1,10.5-5.5,15.4c-2.4,4.8-5.5,9.1-9.4,12.7c-3.9,3.6-8.6,6.5-14.2,8.7
		c-5.6,2.1-12.1,3.2-19.6,3.2c-8.6,0-16-1.6-22.2-4.8c-6.1-3.2-11.2-7.5-15.1-12.9c-3.9-5.4-6.7-11.7-8.5-18.8
		c-1.8-7.1-2.7-14.7-2.7-22.7c0-10.7,1.3-19.8,4-27.3c2.7-7.5,6.3-13.6,11-18.3c4.7-4.7,10.2-8.2,16.6-10.3
		c6.3-2.1,13.3-3.2,20.8-3.2c5.7,0,11.1,0.8,16,2.3c4.9,1.5,9.3,3.8,13.1,6.8c3.8,3,6.9,6.7,9.4,11.2c2.4,4.4,4.1,9.6,5.1,15.4
		H214.5z"/>
	<path class="st1" d="M237.1,134.1l44.2-112.4h12l43.1,112.4h-10.9l-13-35.3h-51.2l-13.3,35.3H237.1z M264.9,89.8h44l-22-59
		L264.9,89.8z"/>
	<path class="st1" d="M356,100.6c0.4,5,1.5,9.2,3.4,12.7c1.8,3.5,4.2,6.3,7,8.5c2.9,2.2,6.2,3.8,9.9,4.8c3.7,1,7.8,1.5,12,1.5
		c5,0,9.3-0.6,13-1.9c3.6-1.2,6.6-2.9,8.9-5.1c2.3-2.1,4-4.6,5.1-7.4c1.1-2.8,1.6-5.8,1.6-8.9c0-4.4-1-7.9-3-10.6
		c-2-2.7-4.6-4.9-7.7-6.6c-3.2-1.7-6.8-3.1-10.9-4.1c-4.1-1-8.3-2.1-12.6-3c-4.3-1-8.5-2.2-12.6-3.5c-4.1-1.4-7.8-3.2-10.9-5.5
		c-3.2-2.3-5.8-5.2-7.7-8.8c-2-3.6-3-8.1-3-13.7c0-3.8,0.8-7.6,2.4-11.2c1.6-3.6,4-6.9,7.2-9.7c3.2-2.8,7.2-5,11.9-6.7
		c4.8-1.7,10.3-2.5,16.6-2.5c6.3,0,11.9,0.9,16.6,2.7c4.7,1.8,8.7,4.2,11.8,7.3c3.1,3.1,5.5,6.6,7,10.7s2.3,8.4,2.3,13h-10.2
		c0-4.3-0.8-8-2.3-11.1c-1.5-3.1-3.6-5.7-6.2-7.7c-2.6-2-5.6-3.4-8.9-4.4c-3.3-0.9-6.8-1.4-10.3-1.4c-5.4,0-10,0.8-13.7,2.3
		c-3.7,1.5-6.6,3.5-8.8,5.9c-2.2,2.4-3.7,5.1-4.5,8c-0.8,2.9-1,5.8-0.5,8.7c0.6,3.6,2.1,6.6,4.4,8.7c2.3,2.2,5.1,4,8.4,5.4
		c3.3,1.4,7,2.6,11,3.4c4,0.9,8.1,1.8,12.3,2.8c4.2,1,8.2,2.2,12.1,3.5c3.9,1.4,7.4,3.2,10.4,5.5c3,2.3,5.4,5.2,7.3,8.8
		c1.8,3.6,2.7,8.1,2.7,13.5c0,10.4-3.6,18.5-10.8,24.2c-7.2,5.7-17.3,8.6-30.3,8.6c-5.8,0-11.2-0.8-16.2-2.3c-5-1.5-9.3-3.8-13-6.9
		c-3.6-3.1-6.5-6.9-8.5-11.4c-2-4.5-3-9.9-3-16H356z"/>
	<path class="st1" d="M446.5,134.1V21.7h16.2l36.9,99.2h0.3l36.2-99.2h16.1v112.4h-10.6V33.9h-0.3l-36.9,100.3h-10l-37-100.3h-0.3
		v100.3H446.5z"/>
</g>
<line class="st2" x1="0.7" y1="78.1" x2="117.8" y2="78.1"/>
<line class="st2" x1="0.5" y1="99.8" x2="47.2" y2="18.8"/>
<line class="st2" x1="90.5" y1="136.1" x2="22.9" y2="18.9"/>
<line class="st2" x1="23.7" y1="136" x2="91.2" y2="19"/>
<line class="st2" x1="67.8" y1="136" x2="117.8" y2="49.4"/>
<line class="st2" x1="46.1" y1="136" x2="0.3" y2="56.6"/>
<line class="st2" x1="0.5" y1="116.5" x2="117.7" y2="116.5"/>
<line class="st2" x1="0.5" y1="39.7" x2="117.7" y2="39.7"/>
<line class="st2" x1="117.8" y1="105.9" x2="67.6" y2="18.8"/>
<line class="st2" x1="2.2" y1="136" x2="0.5" y2="133"/>
<line class="st2" x1="117.7" y1="29.4" x2="111.5" y2="18.8"/>
<line class="st2" x1="0.5" y1="22.8" x2="2.8" y2="18.8"/>
<line class="st2" x1="112.8" y1="136" x2="117.4" y2="128"/>
<g>
	<defs>
		<rect id="SVGID_1_" x="0.5" y="18.8" width="117.2" height="117.2"/>
	</defs>
	<clipPath id="SVGID_00000168815586163219984210000010889044097491313033_">
		<use xlink:href="#SVGID_1_"  style="overflow:visible;"/>
	</clipPath>
	<g style="clip-path:url(#SVGID_00000168815586163219984210000010889044097491313033_);">
		<circle class="st4" cx="123" cy="38.7" r="9.2"/>
		<circle class="st4" cx="123.9" cy="116.4" r="9.2"/>
	</g>
	<use xlink:href="#SVGID_1_"  style="overflow:visible;fill:none;stroke:#FFFFFF;stroke-miterlimit:10;"/>
</g>
<rect x="0.5" y="18.8" class="st5" width="117.2" height="117.2"/>
<rect x="0.5" y="18.8" class="st5" width="117.2" height="117.2"/>
<circle class="st6" cx="34.8" cy="39.7" r="9.2"/>
<circle class="st6" cx="79.6" cy="39.7" r="9.2"/>
<circle class="st6" cx="13" cy="78.1" r="9.2"/>
<circle class="st4" cx="57.1" cy="78.1" r="9.2"/>
<circle class="st4" cx="101.3" cy="78.1" r="9.2"/>
<circle class="st6" cx="79.1" cy="116.4" r="9.2"/>
<circle class="st6" cx="35" cy="116.5" r="9.2"/>
</svg>
