<?xml version="1.0" encoding="utf-8"?>
<!-- Generator: Adobe Illustrator 28.0.0, SVG Export Plug-In . SVG Version: 6.00 Build 0)  -->
<svg version="1.1" id="Layer_1" xmlns="http://www.w3.org/2000/svg" xmlns:xlink="http://www.w3.org/1999/xlink" x="0px" y="0px"
	 viewBox="0 0 150 150" style="enable-background:new 0 0 150 150;" xml:space="preserve">
<style type="text/css">
	.st0{fill:none;stroke:#000000;stroke-width:0.5;stroke-miterlimit:10;}
	.st1{clip-path:url(#SVGID_00000097483115557934756390000001767797434186674848_);}
	.st2{fill:#12375F;}
	.st3{fill:none;stroke:#000000;stroke-miterlimit:10;}
	.st4{fill:#FEBC15;stroke:#000000;stroke-width:0.5;stroke-miterlimit:10;}
</style>
<g>
	<line class="st0" x1="16.6" y1="75.7" x2="133.8" y2="75.7"/>
	<line class="st0" x1="16.4" y1="97.3" x2="63.2" y2="16.4"/>
	<line class="st0" x1="106.4" y1="133.6" x2="38.8" y2="16.5"/>
	<line class="st0" x1="39.6" y1="133.5" x2="107.1" y2="16.6"/>
	<line class="st0" x1="83.8" y1="133.5" x2="133.8" y2="46.9"/>
	<line class="st0" x1="62" y1="133.5" x2="16.2" y2="54.2"/>
	<line class="st0" x1="16.4" y1="114.1" x2="133.6" y2="114.1"/>
	<line class="st0" x1="16.4" y1="37.2" x2="133.6" y2="37.2"/>
	<line class="st0" x1="133.8" y1="103.4" x2="83.5" y2="16.4"/>
	<line class="st0" x1="18.1" y1="133.5" x2="16.4" y2="130.6"/>
	<line class="st0" x1="133.6" y1="27" x2="127.5" y2="16.4"/>
	<line class="st0" x1="16.4" y1="20.3" x2="18.7" y2="16.4"/>
	<line class="st0" x1="128.7" y1="133.5" x2="133.3" y2="125.6"/>
	<g>
		<defs>
			<rect id="SVGID_1_" x="16.4" y="16.4" width="117.2" height="117.2"/>
		</defs>
		<clipPath id="SVGID_00000114780692342933920040000005040078145218371766_">
			<use xlink:href="#SVGID_1_"  style="overflow:visible;"/>
		</clipPath>
		<g style="clip-path:url(#SVGID_00000114780692342933920040000005040078145218371766_);">
			<circle class="st2" cx="138.9" cy="36.2" r="9.2"/>
			<circle class="st2" cx="139.9" cy="114" r="9.2"/>
		</g>
	</g>
	<rect x="16.4" y="16.4" class="st3" width="117.2" height="117.2"/>
	<rect x="16.4" y="16.4" class="st3" width="117.2" height="117.2"/>
	<circle class="st4" cx="50.8" cy="37.2" r="9.2"/>
	<circle class="st4" cx="95.6" cy="37.2" r="9.2"/>
	<circle class="st4" cx="28.9" cy="75.7" r="9.2"/>
	<circle class="st2" cx="73" cy="75.7" r="9.2"/>
	<circle class="st2" cx="117.2" cy="75.7" r="9.2"/>
	<circle class="st4" cx="95.1" cy="114" r="9.2"/>
	<circle class="st4" cx="50.9" cy="114.1" r="9.2"/>
</g>
</svg>
